<?xml version="1.0" encoding="iso-8859-1"?>
<!-- Uploaded to: SVG Repo, www.svgrepo.com, Generator: SVG Repo Mixer Tools -->
<svg height="800px" width="800px" version="1.1" id="Layer_1" xmlns="http://www.w3.org/2000/svg" xmlns:xlink="http://www.w3.org/1999/xlink" 
	 viewBox="0 0 512 512" xml:space="preserve">
<g>
	<path style="fill:#358E4C;" d="M0,388.414c0,0,81.814-88.276,159.753-88.276c0,0,36.078,1.933,30.923,25.768
		c0,0,13.859-4.087,30.252-9.437c63.815-20.851,134.171-2.251,178.697,47.996c0.777,0.883,1.562,1.766,2.339,2.666
		c0,0,75.573,56.594,110.036,56.594H0V388.414z"/>
	<g>
		<path style="fill:#F29C1F;" d="M229.517,123.586c-4.882,0-8.828-3.955-8.828-8.828V97.103c0-4.873,3.946-8.828,8.828-8.828
			s8.828,3.955,8.828,8.828v17.655C238.345,119.631,234.399,123.586,229.517,123.586"/>
		<path style="fill:#F29C1F;" d="M397.241,273.655h-17.655c-4.882,0-8.828-3.955-8.828-8.828s3.946-8.828,8.828-8.828h17.655
			c4.882,0,8.828,3.955,8.828,8.828S402.123,273.655,397.241,273.655"/>
		<path style="fill:#F29C1F;" d="M79.448,273.655H61.793c-4.882,0-8.828-3.955-8.828-8.828S56.911,256,61.793,256h17.655
			c4.882,0,8.828,3.955,8.828,8.828S84.33,273.655,79.448,273.655"/>
		<path style="fill:#F29C1F;" d="M123.405,167.539c-2.26,0-4.52-0.865-6.241-2.586l-12.482-12.482
			c-3.452-3.452-3.452-9.031,0-12.482c3.452-3.452,9.031-3.452,12.482,0l12.482,12.482c3.452,3.452,3.452,9.031,0,12.482
			C127.925,166.674,125.665,167.539,123.405,167.539"/>
		<path style="fill:#F29C1F;" d="M335.629,167.539c-2.26,0-4.52-0.865-6.241-2.586c-3.452-3.452-3.452-9.031,0-12.482l12.482-12.482
			c3.452-3.452,9.031-3.452,12.482,0c3.452,3.452,3.452,9.031,0,12.482l-12.482,12.482
			C340.149,166.674,337.889,167.539,335.629,167.539"/>
	</g>
	<path style="fill:#F0C419;" d="M159.756,300.138c0,0,36.07,1.933,30.923,25.768c0.247-1.174,12.597-3.831,13.85-4.22
		c0.026-0.009,0.062-0.018,0.097-0.026c5.014-1.562,10.019-3.213,15.033-4.785c0.433-0.141,0.83-0.274,1.262-0.406
		c36.617-11.961,75.37-10.884,110.177,1.66l0,0c8.377-15.934,13.18-34.048,13.18-53.301c0-63.382-51.385-114.759-114.759-114.759
		c-63.382,0-114.759,51.377-114.759,114.759c0,14.257,3.196,28.672,7.962,41.278C134.942,302.371,147.398,300.138,159.756,300.138"
		/>
</g>
</svg>